<mxfile host="app.diagrams.net" modified="2020-11-28T02:36:07.029Z" agent="5.0 (Windows NT 10.0; Win64; x64) AppleWebKit/537.36 (KHTML, like Gecko) Chrome/87.0.4280.66 Safari/537.36" etag="torgDERjDo19_p5x2gx1" version="13.10.4" type="github">
  <diagram name="Page-1" id="9361dd3d-8414-5efd-6122-117bd74ce7a7">
    <mxGraphModel dx="1454" dy="2060" grid="1" gridSize="10" guides="1" tooltips="1" connect="1" arrows="1" fold="1" page="0" pageScale="1.5" pageWidth="826" pageHeight="1169" background="#ffffff" math="0" shadow="0">
      <root>
        <mxCell id="0" />
        <mxCell id="1" parent="0" />
        <mxCell id="hHYxyHjEc-MQjAZJ8Bx4-95" value="Beranda" style="shape=umlFrame;whiteSpace=wrap;html=1;strokeWidth=2;" vertex="1" parent="1">
          <mxGeometry x="70" y="-160" width="530" height="530" as="geometry" />
        </mxCell>
        <mxCell id="hHYxyHjEc-MQjAZJ8Bx4-90" value="" style="shape=umlLifeline;participant=umlActor;perimeter=lifelinePerimeter;whiteSpace=wrap;html=1;container=1;collapsible=0;recursiveResize=0;verticalAlign=top;spacingTop=36;outlineConnect=0;strokeWidth=2;" vertex="1" parent="1">
          <mxGeometry x="160" y="-80" width="20" height="430" as="geometry" />
        </mxCell>
        <mxCell id="hHYxyHjEc-MQjAZJ8Bx4-91" value="UI beranda" style="shape=umlLifeline;perimeter=lifelinePerimeter;whiteSpace=wrap;html=1;container=1;collapsible=0;recursiveResize=0;outlineConnect=0;strokeWidth=2;" vertex="1" parent="1">
          <mxGeometry x="270" y="-80" width="100" height="430" as="geometry" />
        </mxCell>
        <mxCell id="hHYxyHjEc-MQjAZJ8Bx4-96" value="" style="html=1;points=[];perimeter=orthogonalPerimeter;fillColor=#67AB9F;strokeColor=none;strokeWidth=2;" vertex="1" parent="hHYxyHjEc-MQjAZJ8Bx4-91">
          <mxGeometry x="42.5" y="60" width="15" height="70" as="geometry" />
        </mxCell>
        <mxCell id="hHYxyHjEc-MQjAZJ8Bx4-110" value="" style="html=1;points=[];perimeter=orthogonalPerimeter;strokeWidth=2;fillColor=#67AB9F;strokeColor=none;" vertex="1" parent="hHYxyHjEc-MQjAZJ8Bx4-91">
          <mxGeometry x="43.13" y="160" width="13.75" height="40" as="geometry" />
        </mxCell>
        <mxCell id="hHYxyHjEc-MQjAZJ8Bx4-111" value="tampilan beranda" style="edgeStyle=orthogonalEdgeStyle;html=1;align=left;spacingLeft=2;endArrow=block;rounded=0;entryX=1;entryY=0;strokeColor=#808080;strokeWidth=2;exitX=0.963;exitY=0.916;exitDx=0;exitDy=0;exitPerimeter=0;" edge="1" target="hHYxyHjEc-MQjAZJ8Bx4-110" parent="hHYxyHjEc-MQjAZJ8Bx4-91" source="hHYxyHjEc-MQjAZJ8Bx4-96">
          <mxGeometry x="-0.9258" y="-16" relative="1" as="geometry">
            <mxPoint x="55" y="160" as="sourcePoint" />
            <Array as="points">
              <mxPoint x="80" y="124" />
              <mxPoint x="80" y="160" />
            </Array>
            <mxPoint as="offset" />
          </mxGeometry>
        </mxCell>
        <mxCell id="hHYxyHjEc-MQjAZJ8Bx4-112" value="" style="html=1;points=[];perimeter=orthogonalPerimeter;strokeWidth=2;fillColor=#67AB9F;strokeColor=none;" vertex="1" parent="hHYxyHjEc-MQjAZJ8Bx4-91">
          <mxGeometry x="41.88" y="210" width="15" height="80" as="geometry" />
        </mxCell>
        <mxCell id="hHYxyHjEc-MQjAZJ8Bx4-118" value="" style="html=1;points=[];perimeter=orthogonalPerimeter;strokeColor=none;strokeWidth=2;fillColor=#67AB9F;" vertex="1" parent="hHYxyHjEc-MQjAZJ8Bx4-91">
          <mxGeometry x="40" y="320" width="18" height="80" as="geometry" />
        </mxCell>
        <mxCell id="hHYxyHjEc-MQjAZJ8Bx4-92" value="CTRL beranda" style="shape=umlLifeline;perimeter=lifelinePerimeter;whiteSpace=wrap;html=1;container=1;collapsible=0;recursiveResize=0;outlineConnect=0;strokeWidth=2;" vertex="1" parent="1">
          <mxGeometry x="440" y="-80" width="100" height="430" as="geometry" />
        </mxCell>
        <mxCell id="hHYxyHjEc-MQjAZJ8Bx4-120" value="" style="html=1;points=[];perimeter=orthogonalPerimeter;strokeColor=none;strokeWidth=2;fillColor=#67AB9F;" vertex="1" parent="hHYxyHjEc-MQjAZJ8Bx4-92">
          <mxGeometry x="39.5" y="320" width="18" height="80" as="geometry" />
        </mxCell>
        <mxCell id="hHYxyHjEc-MQjAZJ8Bx4-97" value="buka" style="html=1;verticalAlign=bottom;startArrow=oval;endArrow=block;startSize=8;strokeColor=#808080;strokeWidth=2;" edge="1" target="hHYxyHjEc-MQjAZJ8Bx4-96" parent="1" source="hHYxyHjEc-MQjAZJ8Bx4-90">
          <mxGeometry relative="1" as="geometry">
            <mxPoint x="255" y="-10" as="sourcePoint" />
          </mxGeometry>
        </mxCell>
        <mxCell id="hHYxyHjEc-MQjAZJ8Bx4-98" value="warga" style="text;html=1;strokeColor=none;fillColor=none;align=center;verticalAlign=middle;whiteSpace=wrap;rounded=0;" vertex="1" parent="1">
          <mxGeometry x="150" y="-40" width="40" height="20" as="geometry" />
        </mxCell>
        <mxCell id="hHYxyHjEc-MQjAZJ8Bx4-100" value="" style="html=1;points=[];perimeter=orthogonalPerimeter;fillColor=#67AB9F;strokeColor=none;strokeWidth=2;" vertex="1" parent="1">
          <mxGeometry x="482.5" y="-20" width="15" height="70" as="geometry" />
        </mxCell>
        <mxCell id="hHYxyHjEc-MQjAZJ8Bx4-101" value="" style="edgeStyle=orthogonalEdgeStyle;rounded=0;orthogonalLoop=1;jettySize=auto;html=1;strokeColor=#808080;strokeWidth=2;" edge="1" parent="1" source="hHYxyHjEc-MQjAZJ8Bx4-96" target="hHYxyHjEc-MQjAZJ8Bx4-100">
          <mxGeometry relative="1" as="geometry" />
        </mxCell>
        <mxCell id="hHYxyHjEc-MQjAZJ8Bx4-102" value="display beranda" style="edgeLabel;html=1;align=center;verticalAlign=middle;resizable=0;points=[];" vertex="1" connectable="0" parent="hHYxyHjEc-MQjAZJ8Bx4-101">
          <mxGeometry x="0.1683" y="2" relative="1" as="geometry">
            <mxPoint x="-17.79" y="2" as="offset" />
          </mxGeometry>
        </mxCell>
        <mxCell id="hHYxyHjEc-MQjAZJ8Bx4-113" value="data warga" style="html=1;verticalAlign=bottom;startArrow=oval;endArrow=block;startSize=8;strokeColor=#808080;strokeWidth=2;" edge="1" target="hHYxyHjEc-MQjAZJ8Bx4-112" parent="1" source="hHYxyHjEc-MQjAZJ8Bx4-90">
          <mxGeometry relative="1" as="geometry">
            <mxPoint x="251.88" y="130" as="sourcePoint" />
          </mxGeometry>
        </mxCell>
        <mxCell id="hHYxyHjEc-MQjAZJ8Bx4-114" value="" style="html=1;points=[];perimeter=orthogonalPerimeter;strokeWidth=2;fillColor=#67AB9F;strokeColor=none;" vertex="1" parent="1">
          <mxGeometry x="482.5" y="130" width="15" height="80" as="geometry" />
        </mxCell>
        <mxCell id="hHYxyHjEc-MQjAZJ8Bx4-115" value="" style="edgeStyle=orthogonalEdgeStyle;rounded=0;orthogonalLoop=1;jettySize=auto;html=1;strokeColor=#808080;strokeWidth=2;" edge="1" parent="1" source="hHYxyHjEc-MQjAZJ8Bx4-112" target="hHYxyHjEc-MQjAZJ8Bx4-114">
          <mxGeometry relative="1" as="geometry" />
        </mxCell>
        <mxCell id="hHYxyHjEc-MQjAZJ8Bx4-117" value="ke data warga" style="edgeLabel;html=1;align=center;verticalAlign=middle;resizable=0;points=[];" vertex="1" connectable="0" parent="hHYxyHjEc-MQjAZJ8Bx4-115">
          <mxGeometry x="0.1171" y="1" relative="1" as="geometry">
            <mxPoint x="-13.74" y="1" as="offset" />
          </mxGeometry>
        </mxCell>
        <mxCell id="hHYxyHjEc-MQjAZJ8Bx4-119" value="logout" style="html=1;verticalAlign=bottom;startArrow=oval;endArrow=block;startSize=8;strokeColor=#808080;strokeWidth=2;" edge="1" target="hHYxyHjEc-MQjAZJ8Bx4-118" parent="1" source="hHYxyHjEc-MQjAZJ8Bx4-90">
          <mxGeometry relative="1" as="geometry">
            <mxPoint x="258" y="240" as="sourcePoint" />
          </mxGeometry>
        </mxCell>
        <mxCell id="hHYxyHjEc-MQjAZJ8Bx4-121" value="" style="edgeStyle=orthogonalEdgeStyle;rounded=0;orthogonalLoop=1;jettySize=auto;html=1;strokeColor=#808080;strokeWidth=2;" edge="1" parent="1" source="hHYxyHjEc-MQjAZJ8Bx4-118" target="hHYxyHjEc-MQjAZJ8Bx4-120">
          <mxGeometry relative="1" as="geometry" />
        </mxCell>
        <mxCell id="hHYxyHjEc-MQjAZJ8Bx4-122" value="logout" style="edgeLabel;html=1;align=center;verticalAlign=middle;resizable=0;points=[];" vertex="1" connectable="0" parent="hHYxyHjEc-MQjAZJ8Bx4-121">
          <mxGeometry x="-0.1091" y="-1" relative="1" as="geometry">
            <mxPoint x="14.41" y="-1" as="offset" />
          </mxGeometry>
        </mxCell>
      </root>
    </mxGraphModel>
  </diagram>
</mxfile>
